<svg xmlns="http://www.w3.org/2000/svg" width="500" height="198" viewBox="0 0 500 198" version="1.1">
	<path d="M 69.643 30.112 C 62.365 32.079, 58.739 39.093, 58.326 52 C 58.042 60.888, 58.116 61.307, 59.466 58.500 C 60.260 56.850, 60.930 54.910, 60.955 54.188 C 61.066 50.970, 66.137 42.351, 68.869 40.736 C 72.605 38.530, 74.230 39.138, 80.690 45.161 C 86.410 50.494, 90.170 51.419, 92.026 47.951 C 96.140 40.264, 79.918 27.336, 69.643 30.112 M 105.308 33.972 C 100.261 36.092, 98.121 44.483, 101.365 49.434 C 102.225 50.747, 104.527 52.349, 106.480 52.994 C 109.521 53.997, 110.497 53.895, 113.266 52.283 C 118.892 49.009, 119.922 40.478, 115.255 35.811 C 113.082 33.637, 108.237 32.742, 105.308 33.972 M 138.687 56.557 C 136.696 61.004, 132.838 65.497, 127.537 69.540 C 122.476 73.400, 120.476 72.295, 116.423 63.400 C 112.700 55.231, 110.378 53.967, 107.411 58.496 C 105.365 61.618, 106.153 66.785, 109.574 72.677 C 114.536 81.224, 119.966 82.968, 127.630 78.477 C 134.523 74.437, 141.593 62.076, 140.830 55.398 C 140.500 52.510, 140.498 52.511, 138.687 56.557 M 64.498 70.378 C 61.753 72.385, 61.972 78.277, 64.907 81.401 C 67.746 84.423, 68.631 83.053, 50.900 103.113 C 43.420 111.576, 35.809 120.218, 33.987 122.318 C 31.248 125.474, 33.780 124.105, 48.587 114.425 C 58.439 107.983, 69.414 100.344, 72.976 97.449 L 79.451 92.185 82.226 94.161 C 83.751 95.247, 85 96.600, 85 97.167 C 85 99.236, 79.020 103.623, 69.066 108.856 C 63.463 111.802, 59.018 114.332, 59.189 114.479 C 60.105 115.267, 73.467 112.793, 79.666 110.688 C 88.050 107.842, 92.451 104.962, 94.515 100.971 C 96.841 96.472, 96.300 93.559, 92.170 88.340 C 81.875 75.331, 69.081 67.027, 64.498 70.378 M 157.250 70.706 L 155 71.139 155 95.570 L 155 120 164 120 L 173 120 173 112 L 173 104 179.032 104 C 185.166 104, 191.017 102.200, 194.177 99.339 C 195.140 98.468, 196.673 95.804, 197.584 93.419 C 201.298 83.695, 195.973 73.742, 185.670 71.147 C 181.370 70.064, 162.131 69.766, 157.250 70.706 M 208.250 70.651 L 206 71.139 206 95.570 L 206 120 215.750 120.129 C 236.746 120.407, 241.691 119.509, 246.690 114.510 C 249.498 111.702, 250 110.487, 250 106.500 C 250 102.488, 249.502 101.302, 246.600 98.400 C 244.730 96.530, 242.480 95, 241.600 95 C 240.720 95, 240 94.550, 240 94 C 240 93.450, 240.614 93, 241.364 93 C 242.114 93, 243.914 91.814, 245.364 90.364 C 248.462 87.266, 248.984 80.849, 246.434 77.209 C 242.955 72.242, 237.542 70.632, 223.500 70.389 C 216.350 70.265, 209.488 70.383, 208.250 70.651 M 411.008 72.188 C 405.025 75.268, 402 79.929, 402 86.071 C 402 92.327, 405.187 96.165, 413.862 100.357 C 420.404 103.519, 421.374 104.731, 418.709 106.412 C 417.410 107.231, 412.713 106.111, 406.900 103.594 C 405.725 103.085, 404.478 104.167, 402.197 107.673 C 399.388 111.992, 399.238 112.605, 400.618 114.130 C 402.846 116.592, 410.815 119.774, 416.713 120.556 C 431.679 122.542, 443.840 112.134, 440.032 100.598 C 438.608 96.281, 434.362 92.577, 427.218 89.418 C 423.992 87.991, 421.990 86.523, 422.240 85.766 C 422.904 83.749, 427.186 83.646, 430.742 85.560 C 432.540 86.529, 434.140 87.137, 434.298 86.911 C 437.837 81.821, 440.042 77.552, 439.654 76.539 C 438.625 73.858, 429.663 70.551, 422.500 70.210 C 416.722 69.934, 414.716 70.280, 411.008 72.188 M 257 95.500 L 257 120 275.500 120 L 294 120 294 112 L 294 104 284.500 104 L 275 104 275 87.500 L 275 71 266 71 L 257 71 257 95.500 M 300.164 87.250 C 300.468 101.963, 300.725 103.958, 302.883 108.340 C 310.981 124.790, 337.019 124.790, 345.117 108.340 C 347.275 103.958, 347.532 101.963, 347.836 87.250 L 348.172 71 339.086 71 L 330 71 330 84.777 C 330 100.323, 329.118 103, 324 103 C 318.882 103, 318 100.323, 318 84.777 L 318 71 308.914 71 L 299.828 71 300.164 87.250 M 357 95.500 L 357 120 376.500 120 L 396 120 396 113 L 396 106 385.500 106 C 375.667 106, 375 105.873, 375 104 C 375 102.148, 375.667 102, 384 102 L 393 102 393 95 L 393 88 384 88 C 375.667 88, 375 87.852, 375 86 C 375 84.140, 375.667 84, 384.500 84 L 394 84 394 77.500 L 394 71 375.500 71 L 357 71 357 95.500 M 224 85.566 C 224 88.865, 224.206 89.109, 226.741 88.816 C 230.064 88.433, 231.039 85.233, 228.418 83.316 C 225.322 81.053, 224 81.726, 224 85.566 M 173.667 83.667 C 173.300 84.033, 173 85.833, 173 87.667 C 173 90.651, 173.293 91, 175.800 91 C 178.751 91, 181 89.431, 181 87.371 C 181 84.439, 175.615 81.718, 173.667 83.667 M 224 104.566 C 224 107.837, 224.220 108.107, 226.649 107.816 C 232.195 107.154, 231.950 101, 226.378 101 C 224.319 101, 224 101.478, 224 104.566 M 143.338 135.999 C 138.845 137.810, 139.632 144.368, 144.488 145.586 C 145.824 145.922, 147.482 146.876, 148.171 147.706 C 149.200 148.946, 149.083 149.466, 147.521 150.608 C 145.117 152.366, 144.495 152.352, 142.643 150.500 C 140.546 148.403, 139.808 148.628, 140.180 151.250 C 140.728 155.107, 148.923 154.880, 151.027 150.950 C 152.653 147.911, 151.276 145.146, 147.174 143.214 C 145.153 142.263, 143.500 140.813, 143.500 139.992 C 143.500 137.757, 147.921 137.522, 149.549 139.670 C 150.845 141.379, 150.938 141.327, 150.968 138.867 C 151.010 135.443, 147.752 134.218, 143.338 135.999 M 185.270 135.729 C 178.081 137.035, 176.881 149.802, 183.657 152.890 C 190.410 155.967, 196.906 152.022, 196.968 144.806 C 197.021 138.653, 191.738 134.554, 185.270 135.729 M 251.338 135.999 C 246.845 137.810, 247.632 144.368, 252.488 145.586 C 253.824 145.922, 255.482 146.876, 256.171 147.706 C 257.200 148.946, 257.083 149.466, 255.521 150.608 C 253.117 152.366, 252.495 152.352, 250.643 150.500 C 248.546 148.403, 247.808 148.628, 248.180 151.250 C 248.728 155.107, 256.923 154.880, 259.027 150.950 C 260.653 147.911, 259.276 145.146, 255.174 143.214 C 253.153 142.263, 251.500 140.813, 251.500 139.992 C 251.500 137.757, 255.921 137.522, 257.549 139.670 C 258.845 141.379, 258.938 141.327, 258.968 138.867 C 259.010 135.443, 255.752 134.218, 251.338 135.999 M 280.338 135.999 C 275.845 137.810, 276.632 144.368, 281.488 145.586 C 282.824 145.922, 284.482 146.876, 285.171 147.706 C 286.200 148.946, 286.083 149.466, 284.521 150.608 C 282.117 152.366, 281.495 152.352, 279.643 150.500 C 277.546 148.403, 276.808 148.628, 277.180 151.250 C 277.728 155.107, 285.923 154.880, 288.027 150.950 C 289.653 147.911, 288.276 145.146, 284.174 143.214 C 282.153 142.263, 280.500 140.813, 280.500 139.992 C 280.500 137.757, 284.921 137.522, 286.549 139.670 C 287.845 141.379, 287.938 141.327, 287.968 138.867 C 288.010 135.443, 284.752 134.218, 280.338 135.999 M 327.270 135.729 C 320.081 137.035, 318.881 149.802, 325.657 152.890 C 332.410 155.967, 338.906 152.022, 338.968 144.806 C 339.021 138.653, 333.738 134.554, 327.270 135.729 M 158.800 137.200 C 160.264 138.664, 160.444 152, 159 152 C 158.450 152, 158 152.450, 158 153 C 158 153.550, 159.575 154, 161.500 154 C 164.870 154, 166.083 152.787, 164 151.500 C 163.450 151.160, 163 150.036, 163 149.001 C 163 147.553, 163.855 147.049, 166.719 146.810 C 169.517 146.577, 170.801 145.848, 171.909 143.865 C 173.227 141.505, 173.202 140.958, 171.667 138.615 C 170.126 136.262, 169.335 136, 163.777 136 C 158.973 136, 157.867 136.267, 158.800 137.200 M 204 137 C 204 137.550, 204.450 138, 205 138 C 205.563 138, 206 140.814, 206 144.441 C 206 147.984, 205.550 151.160, 205 151.500 C 202.917 152.787, 204.130 154, 207.500 154 C 209.425 154, 211 153.550, 211 153 C 211 152.450, 210.550 152, 210 152 C 209.450 152, 209 150.875, 209 149.500 C 209 145.971, 211.108 146.419, 213.759 150.512 C 215.093 152.571, 216.834 154, 218.009 154 C 220.612 154, 220.545 153.720, 217.017 149.858 L 214.035 146.592 216.017 144.482 C 220.387 139.830, 217.412 136, 209.429 136 C 206.443 136, 204 136.450, 204 137 M 226 138 C 226 139.100, 226.450 140, 227 140 C 227.550 140, 228 139.550, 228 139 C 228 138.450, 228.900 138, 230 138 C 231.810 138, 232 138.667, 232 145 C 232 149, 231.571 152, 231 152 C 230.450 152, 230 152.450, 230 153 C 230 153.550, 231.575 154, 233.500 154 C 237.083 154, 237.810 153.210, 235.946 151.346 C 235.366 150.766, 235.028 147.643, 235.196 144.405 C 235.445 139.576, 235.837 138.455, 237.380 138.161 C 238.414 137.964, 239.645 138.410, 240.115 139.152 C 240.735 140.130, 240.974 139.883, 240.985 138.250 C 240.999 136.115, 240.616 136, 233.500 136 C 226.667 136, 226 136.178, 226 138 M 295.800 137.200 C 297.264 138.664, 297.444 152, 296 152 C 295.450 152, 295 152.450, 295 153 C 295 153.550, 296.575 154, 298.500 154 C 301.870 154, 303.083 152.787, 301 151.500 C 300.450 151.160, 300 149.784, 300 148.441 C 300 146.215, 300.396 146, 304.500 146 C 308.833 146, 309 146.111, 309 149 C 309 150.650, 308.550 152, 308 152 C 307.450 152, 307 152.450, 307 153 C 307 153.550, 308.575 154, 310.500 154 C 313.870 154, 315.083 152.787, 313 151.500 C 312.450 151.160, 312 147.984, 312 144.441 C 312 140.814, 312.437 138, 313 138 C 313.550 138, 314 137.550, 314 137 C 314 136.450, 312.335 136, 310.300 136 C 307.422 136, 306.867 136.267, 307.800 137.200 C 308.460 137.860, 309 139.686, 309 141.257 C 309 144.001, 308.830 144.103, 304.750 143.807 C 300.947 143.532, 300.467 143.211, 300.184 140.750 C 300.010 139.238, 300.347 138, 300.934 138 C 301.520 138, 302 137.550, 302 137 C 302 136.450, 300.335 136, 298.300 136 C 295.422 136, 294.867 136.267, 295.800 137.200 M 346 137 C 346 137.550, 346.450 138, 347 138 C 347.563 138, 348 140.814, 348 144.441 C 348 147.984, 347.550 151.160, 347 151.500 C 344.917 152.787, 346.130 154, 349.500 154 C 351.425 154, 353 153.550, 353 153 C 353 152.450, 352.550 152, 352 152 C 351.450 152, 351 150.875, 351 149.500 C 351 147.402, 351.471 147, 353.929 147 C 355.539 147, 357.564 146.293, 358.429 145.429 C 360.658 143.199, 360.447 138.310, 358.066 137.035 C 355.588 135.709, 346 135.681, 346 137 M 163 141.500 C 163 144.548, 163.317 145, 165.450 145 C 166.798 145, 168.335 144.224, 168.866 143.276 C 170.247 140.807, 168.437 138, 165.465 138 C 163.315 138, 163 138.447, 163 141.500 M 183.557 140.223 C 180.178 145.046, 182.775 151, 188.257 151 C 191.615 151, 194 148.570, 194 145.151 C 194 141.111, 191.390 138, 188 138 C 186.151 138, 184.554 138.799, 183.557 140.223 M 209 141 C 209 143.514, 209.395 144, 211.441 144 C 214.360 144, 215.355 142.694, 214.497 139.991 C 214.094 138.722, 212.983 138, 211.433 138 C 209.396 138, 209 138.489, 209 141 M 325.557 140.223 C 322.178 145.046, 324.775 151, 330.257 151 C 333.615 151, 336 148.570, 336 145.151 C 336 141.111, 333.390 138, 330 138 C 328.151 138, 326.554 138.799, 325.557 140.223 M 351 141.570 C 351 144.654, 351.292 145.096, 353.148 144.820 C 357.879 144.116, 358.223 138, 353.531 138 C 351.296 138, 351 138.417, 351 141.570" stroke="none" fill="#004aad" fill-rule="evenodd"/>
</svg>